<svg aria-hidden="true" style="position: absolute; width: 0; height: 0; overflow: hidden;" version="1.1"
    xmlns="http://www.w3.org/2000/svg" xmlns:xlink="http://www.w3.org/1999/xlink">
    <defs>
        <symbol id="icon-facebook" viewBox="0 0 30 32">
            <path
                d="M30.476 15.701c0-8.467-6.822-15.331-15.238-15.331s-15.238 6.864-15.238 15.331c0 7.652 5.572 13.995 12.857 15.145v-10.713h-3.869v-4.432h3.869v-3.378c0-3.842 2.275-5.965 5.756-5.965 1.667 0 3.411 0.299 3.411 0.299v3.773h-1.921c-1.893 0-2.483 1.182-2.483 2.394v2.876h4.226l-0.675 4.432h-3.551v10.713c7.285-1.15 12.857-7.493 12.857-15.145z">
            </path>
        </symbol>
        <symbol id="icon-instagram" viewBox="0 0 30 32">
            <path
                d="M21.895 0.409h-13.474c-4.651 0-8.421 3.77-8.421 8.421v13.474c0 4.651 3.77 8.421 8.421 8.421h13.474c4.651 0 8.421-3.77 8.421-8.421v-13.474c0-4.651-3.77-8.421-8.421-8.421zM27.368 22.303c-0.009 3.019-2.455 5.464-5.474 5.474h-13.474c-3.019-0.009-5.464-2.455-5.474-5.474v-13.474c0.009-3.019 2.454-5.464 5.474-5.474h13.474c3.019 0.009 5.464 2.454 5.474 5.474v13.474zM23.158 9.251c0.93 0 1.684-0.754 1.684-1.684s-0.754-1.684-1.684-1.684c-0.93 0-1.684 0.754-1.684 1.684s0.754 1.684 1.684 1.684zM15.158 7.988c-4.186 0-7.579 3.393-7.579 7.579s3.393 7.579 7.579 7.579c4.186 0 7.579-3.393 7.579-7.579 0.005-2.011-0.793-3.942-2.215-5.364s-3.353-2.219-5.364-2.215zM10.526 15.567c0 2.558 2.074 4.632 4.632 4.632s4.632-2.074 4.632-4.632c0-2.558-2.074-4.632-4.632-4.632s-4.632 2.074-4.632 4.632z">
            </path>
        </symbol>
        <symbol id="icon-linkedin" viewBox="0 0 30 32">
            <path
                d="M2.526 0.409c-1.395 0-2.526 1.131-2.526 2.526v25.263c0 1.395 1.131 2.526 2.526 2.526h25.263c1.395 0 2.526-1.131 2.526-2.526v-25.263c0-1.395-1.131-2.526-2.526-2.526h-25.263zM9.298 7.15c0.009 1.611-1.196 2.603-2.627 2.596-1.348-0.007-2.522-1.080-2.515-2.593 0.007-1.423 1.132-2.567 2.593-2.534 1.483 0.033 2.558 1.12 2.548 2.532zM15.629 11.797h-4.247v14.417h4.486v-0.336c0-0.64-0.001-1.28-0.001-1.92-0.001-1.707-0.003-3.417 0.006-5.124 0.002-0.414 0.021-0.845 0.128-1.241 0.4-1.478 1.729-2.432 3.212-2.198 0.952 0.149 1.582 0.701 1.847 1.599 0.164 0.561 0.237 1.165 0.244 1.75 0.019 1.764 0.017 3.529 0.014 5.293-0.001 0.623-0.002 1.246-0.002 1.869v0.306h4.5v-0.346c0-0.761-0-1.522-0.001-2.283-0.001-1.902-0.002-3.805 0.003-5.708 0.002-0.86-0.090-1.708-0.301-2.539-0.315-1.236-0.966-2.26-2.025-2.998-0.751-0.526-1.575-0.864-2.496-0.902-0.105-0.004-0.211-0.010-0.317-0.016-0.471-0.025-0.95-0.051-1.4 0.040-1.288 0.258-2.42 0.848-3.275 1.888-0.099 0.119-0.197 0.24-0.342 0.421l-0.033 0.041v-2.011zM4.516 26.218h4.464v-14.412h-4.464v14.412z">
            </path>
        </symbol>
    </defs>
</svg>