<svg aria-hidden="true" style="position:absolute;width:0;height:0;overflow:hidden" xmlns="http://www.w3.org/2000/svg">
  <defs>
    <symbol id="javascript" viewBox="0 0 32 32">
      <path fill="#f7df1e" style="fill:var(--color3, #f7df1e)" d="M0 0h32v32H0V0z" />
      <path style="fill:var(--color4, #000)"
        d="m8.414 26.741 2.449-1.482c.473.838.902 1.546 1.933 1.546.988 0 1.611-.387 1.611-1.89V14.69h3.007v10.267c0 3.115-1.826 4.532-4.489 4.532-2.406 0-3.802-1.246-4.511-2.75zm10.634-.322 2.448-1.418c.645 1.053 1.482 1.826 2.964 1.826 1.246 0 2.041-.623 2.041-1.482 0-1.031-.816-1.396-2.191-1.997l-.752-.323c-2.17-.923-3.609-2.083-3.609-4.532 0-2.256 1.718-3.974 4.404-3.974 1.912 0 3.287.666 4.274 2.406l-2.341 1.504c-.516-.924-1.074-1.289-1.933-1.289-.881 0-1.439.558-1.439 1.289 0 .902.558 1.268 1.847 1.826l.752.322c2.556 1.096 3.995 2.212 3.995 4.726 0 2.707-2.127 4.189-4.983 4.189-2.792 0-4.597-1.332-5.477-3.072z" />
    </symbol>
    <symbol id="icon-check" viewBox="0 0 44 32">
      <path
        d="M42.703 5.08 16.611 31.172a1.231 1.231 0 0 1-1.748 0L1.595 17.904a1.23 1.23 0 0 1 0-1.748l1.723-1.723a1.231 1.231 0 0 1 1.748 0l10.658 10.658L39.232 1.583a1.256 1.256 0 0 1 1.748 0l1.723 1.748a1.231 1.231 0 0 1 0 1.748z" />
    </symbol>
    <symbol id="icon-close" viewBox="0 0 32 32">
      <path
        d="m29.671 28.728-.943.943a1.333 1.333 0 0 1-1.886 0L16 18.829 5.158 29.671a1.333 1.333 0 0 1-1.886 0l-.943-.943a1.333 1.333 0 0 1 0-1.886L13.171 16 2.329 5.158a1.333 1.333 0 0 1 0-1.886l.943-.943a1.333 1.333 0 0 1 1.886 0L16 13.171 26.842 2.329a1.333 1.333 0 0 1 1.886 0l.943.943a1.333 1.333 0 0 1 0 1.886L18.829 16l10.842 10.842a1.333 1.333 0 0 1 0 1.886z" />
    </symbol>
  </defs>
</svg>