<svg width="84" height="25" viewBox="0 0 84 25" fill="none" xmlns="http://www.w3.org/2000/svg">
<g clip-path="url(#clip0_11213_359)">
<path d="M15.2721 0.859894C15.6453 1.04525 16.065 1.57755 16.3467 1.8923C18.7636 4.59225 20.0314 8.03105 19.8072 11.6509C19.5901 15.1538 17.8602 18.2642 15.2637 20.563C14.772 20.2269 14.3221 19.7485 13.9287 19.3038C11.7229 16.8091 10.5139 13.3041 10.7245 9.97885C10.9417 6.55047 12.6942 3.12 15.2721 0.859894Z" fill="#0D0B0A"/>
<path d="M25.5582 5.76266C25.5653 5.77479 25.5735 5.78644 25.5797 5.7991C25.7172 6.07921 25.757 6.52363 25.7919 6.83453C25.9736 8.45131 25.8232 10.0723 25.2546 11.6031C23.834 15.4276 20.5503 18.2428 16.9197 19.9117C16.8769 19.9112 16.9056 19.9146 16.8403 19.8766C17.0622 19.5137 17.3716 19.1893 17.6276 18.8483C18.0191 18.3158 18.3739 17.7576 18.6894 17.1774C19.8015 15.1309 20.3334 12.8803 20.3317 10.5592C20.3313 9.90003 20.3162 9.24156 20.1254 8.60535C20.4659 8.22747 20.8831 7.90897 21.2881 7.60251C22.5932 6.61483 23.9082 5.92747 25.5582 5.76266Z" fill="#0D0B0A"/>
<path d="M4.94035 5.77867C5.13628 5.78622 5.33396 5.81165 5.52774 5.84113C7.01914 6.06804 8.32405 6.86223 9.48911 7.78137C9.81427 8.0379 10.17 8.30539 10.4149 8.6425C9.79542 11.825 10.617 15.162 12.2626 17.9144C12.5254 18.3519 12.8093 18.7762 13.1134 19.1863C13.2585 19.3817 13.4313 19.559 13.5615 19.7641L13.5154 19.824C10.8021 18.6636 8.26028 16.6103 6.62513 14.1561C4.9097 11.5811 4.34247 8.80739 4.94035 5.77867Z" fill="#0D0B0A"/>
<path d="M28.2125 12.8808C28.6451 12.8291 29.6147 12.7746 29.9773 13.0055C29.9956 13.06 30.0011 13.0654 30.003 13.1317C30.0102 13.3855 29.8444 13.7654 29.7584 14.0022C29.183 15.6361 28.1978 17.0951 26.8972 18.2394C24.3513 20.4905 21.0513 21.2981 17.7185 21.0838C17.089 21.018 16.44 20.9742 15.835 20.7813C18.6273 19.9224 21.2835 18.1678 23.208 15.9766C23.6811 15.4378 24.0279 14.8123 24.4882 14.2706C25.3618 13.2422 26.9459 12.9704 28.2125 12.8808Z" fill="#0D0B0A"/>
<path d="M1.53684 12.966C2.8381 12.8126 4.6038 13.0269 5.67562 13.837C6.31285 14.3188 6.69686 15.2132 7.22352 15.8221C8.87045 17.7293 10.9332 19.2331 13.2528 20.2176C13.7467 20.4291 14.2552 20.6497 14.7775 20.7783L13.7335 20.9528C10.6933 21.3902 7.54279 20.847 4.94149 19.1557C3.17004 18.0036 1.92275 16.4238 1.18945 14.4533C1.0818 14.1644 0.920648 13.8507 0.8656 13.5496C0.833449 13.3738 0.861752 13.2578 0.96449 13.1087C1.12802 12.9884 1.34062 12.9899 1.53684 12.966Z" fill="#0D0B0A"/>
<path d="M54.6321 10.3387C55.6453 10.3303 56.7506 10.2396 57.7512 10.3856C58.395 10.4795 59.049 10.7098 59.4406 11.2615C59.7285 11.668 59.8228 12.2388 59.7336 12.7244C59.6245 13.3186 59.2476 13.6622 58.7707 13.9822C58.8852 14.0305 58.998 14.083 59.1076 14.1414C59.529 14.3694 59.8272 14.7646 59.9504 15.2254C60.1188 15.8551 59.9838 16.5037 59.6701 17.0623C59.5995 17.1695 59.5161 17.2642 59.4231 17.3524C58.4613 18.2643 56.3532 18.0877 55.1106 18.076C54.8714 18.074 54.5564 18.0956 54.3781 17.9139C54.3348 17.8228 54.3176 17.7627 54.3117 17.66C54.2299 16.3253 54.3044 14.9404 54.3039 13.6014C54.3034 12.6529 54.2085 11.4184 54.3322 10.5018C54.4277 10.3822 54.4883 10.383 54.6321 10.3387ZM58.0266 15.032C57.4899 14.6819 56.5861 14.783 55.9631 14.784L55.9651 16.5135C56.6553 16.5184 57.4621 16.6249 58.0744 16.2547C58.2186 16.0423 58.3634 15.7263 58.3215 15.4617C58.2913 15.2695 58.1862 15.1362 58.0266 15.032ZM57.7707 11.9569C57.2587 11.6488 56.5399 11.7272 55.9641 11.7303V13.3904C56.5818 13.3953 57.3189 13.4863 57.8586 13.1375C58.0037 12.9296 58.1439 12.6313 58.0891 12.369C58.0491 12.1764 57.9348 12.0555 57.7707 11.9569Z" fill="#0D0B0A"/>
<path d="M45.1848 12.136C45.3392 12.1232 45.4948 12.1312 45.6467 12.1604C46.1103 12.2533 46.3363 12.5945 46.5842 12.9583C46.5983 12.8311 46.6082 12.6938 46.6379 12.5696C46.6686 12.4401 46.7393 12.3604 46.8557 12.2981C47.0429 12.1985 47.4451 12.1921 47.6409 12.2649C47.7839 12.3182 47.9431 12.4423 47.9924 12.592C48.1381 13.0349 48.0816 17.3703 47.9973 17.9631C47.9417 18.3537 47.8205 18.739 47.6233 19.0813C47.3057 19.6337 46.7649 19.9938 46.1575 20.1585C45.3011 20.3898 44.3271 20.3161 43.5627 19.8557C43.2217 19.6506 43.062 19.3866 42.9719 19.0061C43.0007 18.8687 43.0347 18.7349 43.1526 18.6458C43.5354 18.3565 44.3625 18.8421 44.7873 18.9212C45.1532 18.9889 45.5478 18.9519 45.8518 18.7219C46.3531 18.3439 46.436 17.6449 46.5217 17.0686C46.1861 17.4272 45.8672 17.7159 45.3723 17.8372C44.8361 17.969 44.2486 17.8784 43.7873 17.5725C43.1799 17.1701 42.8412 16.4795 42.717 15.7786C42.5656 14.9252 42.6978 13.9043 43.2151 13.1897C43.7086 12.509 44.3873 12.2581 45.1848 12.136ZM45.2756 13.4426C44.8763 13.5931 44.6556 13.7781 44.4846 14.176C44.2737 14.6651 44.2678 15.374 44.4739 15.8645C44.5825 16.1232 44.8007 16.396 45.0754 16.4885C45.2566 16.5493 45.4758 16.5232 45.6623 16.51C45.9912 16.3926 46.1783 16.2539 46.3342 15.9348C46.5742 15.4443 46.5817 14.7528 46.3987 14.2405C46.2925 13.9429 46.0824 13.6504 45.7844 13.5217C45.6319 13.456 45.4403 13.4344 45.2756 13.4426Z" fill="#0D0B0A"/>
<path d="M78.3532 12.1822C78.7454 12.1302 79.1317 12.1478 79.5019 12.3012C80.0134 12.513 80.2789 12.8988 80.4816 13.3913C80.5853 13.1312 80.6998 12.8691 80.8834 12.6538C81.1738 12.3121 81.5542 12.1762 81.9946 12.1593C82.5017 12.1398 83.0215 12.2563 83.3937 12.6206C83.6382 12.8603 83.7883 13.1813 83.8701 13.5102C84.0879 14.386 83.9661 16.2679 83.969 17.2578C83.9695 17.4093 83.9885 17.8881 83.8701 17.9778C83.6684 18.1297 82.9543 18.0961 82.7029 18.0606C82.5563 18.0401 82.4657 17.9612 82.4053 17.8282C82.3122 17.6236 82.3619 17.2582 82.3649 17.0317C82.3746 16.2976 82.5553 14.2686 82.1208 13.7333C82.0209 13.6105 81.8797 13.5335 81.7204 13.5223C81.4865 13.5058 81.1889 13.5866 81.0189 13.7532C80.4168 14.3432 80.6165 16.4408 80.6214 17.2656C80.6228 17.4322 80.6287 17.6143 80.6082 17.7795C80.599 17.8526 80.5736 17.9373 80.5069 17.9753C80.2502 18.1224 79.6256 18.1005 79.3426 18.0343C79.195 17.9997 79.1322 17.95 79.0795 17.8068C78.9923 17.5695 79.0411 17.2183 79.0455 16.9674C79.0586 16.2318 79.233 14.4026 78.8589 13.8512C78.7463 13.6855 78.5793 13.5847 78.3824 13.5525C78.1588 13.516 77.926 13.5457 77.7438 13.6894C77.0116 14.2672 77.2118 16.2922 77.2152 17.1292C77.2162 17.3303 77.2571 17.6182 77.2104 17.8063C77.1914 17.8847 77.1685 17.9325 77.1013 17.9768C76.866 18.1312 76.2278 18.0981 75.9462 18.0426C75.8279 18.0192 75.7524 17.9466 75.7012 17.8394C75.6291 17.6869 75.6077 13.2861 75.6345 12.8501C75.6418 12.7288 75.6671 12.5992 75.7226 12.4899C75.7942 12.3497 75.9141 12.2584 76.0612 12.2108C76.4095 12.0984 76.844 12.2229 77.1519 12.3939C77.226 12.6689 77.1729 13.0289 77.1612 13.3158C77.1972 13.2427 77.2338 13.1696 77.2713 13.0975C77.5431 12.5724 77.7984 12.3584 78.3532 12.1822Z" fill="#0D0B0A"/>
<path d="M72.0207 12.2048C73.6414 12.1712 74.9886 13.4473 75.0421 15.068C75.0957 16.6882 73.8366 18.0501 72.2169 18.1237C71.1516 18.1724 70.1419 17.6441 69.5744 16.7409C69.0075 15.8374 68.9694 14.699 69.4757 13.7604C69.9818 12.8213 70.9544 12.227 72.0207 12.2048ZM71.8214 13.4928C71.386 13.6862 71.1492 13.9081 70.9806 14.363C70.779 14.907 70.8115 15.6669 71.0695 16.1862C71.2088 16.4658 71.4252 16.6933 71.7257 16.7936C71.9316 16.8627 72.1243 16.8735 72.3351 16.8239C72.7526 16.649 73.0025 16.4264 73.174 15.9987C73.3886 15.4625 73.3865 14.7459 73.1398 14.2204C72.9854 13.8916 72.7103 13.6205 72.3576 13.5163C72.1852 13.4652 71.9982 13.4768 71.8214 13.4928Z" fill="#0D0B0A"/>
<path d="M39.2046 12.2135C40.8358 12.1398 42.2183 13.401 42.2945 15.0318C42.3709 16.6632 41.1118 18.048 39.481 18.1266C37.8467 18.205 36.4588 16.9429 36.3824 15.3082C36.3061 13.6739 37.5701 12.2875 39.2046 12.2135ZM39.6656 13.5318C39.4766 13.4672 39.2822 13.468 39.0865 13.4928C38.6496 13.7086 38.3997 13.9343 38.233 14.4117C38.0444 14.9524 38.0723 15.7245 38.3443 16.232C38.4927 16.509 38.7171 16.7117 39.0201 16.8043C39.2061 16.8613 39.4168 16.8662 39.606 16.8209C40.0223 16.648 40.2667 16.4238 40.4341 15.9967C40.6465 15.455 40.629 14.7404 40.3833 14.2115C40.2391 13.9008 39.9937 13.6443 39.6656 13.5318Z" fill="#0D0B0A"/>
<path d="M65.3877 12.2457C66.4383 12.0759 67.4982 12.4839 68.165 13.3131C68.8314 14.1426 69.0014 15.2661 68.6094 16.2555C68.2167 17.2444 67.3232 17.9472 66.2695 18.0943C64.6644 18.3189 63.1771 17.2087 62.9355 15.606C62.6936 14.0035 63.788 12.5046 65.3877 12.2457ZM65.6289 13.4898C65.1905 13.6764 64.938 13.8884 64.7607 14.3424C64.5528 14.8748 64.5733 15.6122 64.8193 16.1295C64.9679 16.4415 65.2207 16.6981 65.5547 16.8043C65.7217 16.8578 65.9115 16.857 66.084 16.8355C66.5212 16.6509 66.7758 16.4442 66.957 15.9898C67.1673 15.4618 67.1639 14.7332 66.9189 14.2174C66.7733 13.911 66.5255 13.6526 66.2012 13.5377C66.0181 13.473 65.8202 13.4738 65.6289 13.4898Z" fill="#0D0B0A"/>
<path d="M50.6029 12.1848C50.9731 12.1409 51.33 12.1482 51.6947 12.2327C52.2486 12.3611 52.713 12.6831 52.9955 13.18C53.1465 13.4459 53.2339 13.7383 53.2758 14.0403C53.3405 14.5073 53.3771 17.4594 53.2709 17.8655C53.1818 17.9793 53.0923 18.0204 52.9535 18.0501C52.7168 18.1003 52.1977 18.1307 52.0063 17.9534C51.8392 17.799 51.8734 17.4759 51.8715 17.2679C51.5939 17.678 51.3145 18.0088 50.81 18.135C50.2463 18.2753 49.7234 18.1105 49.2377 17.8304C49.031 17.6397 48.8737 17.4445 48.7846 17.1741C48.6346 16.7178 48.6828 16.1023 48.9164 15.6819C49.483 14.6623 50.8181 14.7232 51.7943 14.4358L51.8549 14.4173C51.8155 14.2953 51.7775 14.1707 51.727 14.053C51.1746 12.7794 49.7973 14.1706 49.1313 13.8206C48.9968 13.75 48.8997 13.6069 48.8656 13.4612C48.82 13.2675 48.8723 13.1424 48.9779 12.9817C49.3355 12.4362 50.0058 12.2987 50.6029 12.1848ZM51.7895 15.5882C51.3836 15.6997 50.6223 15.8225 50.3803 16.1907C50.3016 16.311 50.295 16.4685 50.3461 16.6009C50.3822 16.6942 50.4528 16.776 50.515 16.8528C50.9345 16.8811 51.1974 16.8502 51.518 16.5589C51.7123 16.3816 51.8905 16.0968 51.8813 15.8225C51.8788 15.7544 51.8597 15.6852 51.8441 15.6194L51.7895 15.5882Z" fill="#0D0B0A"/>
<path d="M34.0487 13.2812C34.194 12.8194 35.3253 10.6097 35.6857 10.4022C35.8729 10.2944 36.8722 10.278 37.0729 10.3698C37.2017 10.4288 37.2156 10.4636 37.274 10.5839C37.1712 11.156 35.907 13.0761 35.5331 13.7021L34.8761 14.7943C34.8787 15.4509 34.9942 17.4551 34.7653 17.9305C34.6849 17.9919 34.6281 18.026 34.5277 18.0494C34.2193 18.1215 33.6055 18.1 33.3337 17.929C33.1231 17.6519 33.2332 15.3511 33.2336 14.842C32.8978 14.3052 30.7307 10.8449 30.7879 10.5144C30.8594 10.4114 30.9056 10.3856 31.0216 10.34C31.3871 10.3292 32.1304 10.2323 32.4329 10.4159C32.8253 10.6542 33.9028 12.795 34.0487 13.2812Z" fill="#0D0B0A"/>
<path d="M60.8862 10.339C61.2695 10.3291 61.897 10.2332 62.2278 10.4313C62.3208 11.0629 62.2843 11.7313 62.2857 12.3683L62.2896 15.3184C62.2896 16.0886 62.3744 17.0156 62.275 17.7717C62.2555 17.9222 62.1625 17.9714 62.0534 18.0576C61.6539 18.0708 61.0396 18.1697 60.7108 17.91C60.6333 17.6148 60.5846 10.8047 60.6591 10.5357C60.6947 10.4083 60.7785 10.3937 60.8862 10.339Z" fill="#0D0B0A"/>
<path d="M15.429 20.9844C15.9579 21.1725 16.4901 21.323 17.0449 21.4131C18.0008 21.568 19.1113 21.5227 19.9701 22.0206C20.6042 22.3884 21.2536 23.2496 21.4329 23.9638C21.4657 24.0948 21.4562 24.1056 21.3891 24.2142C20.7254 24.4534 20.0807 24.3964 19.4203 24.1801C17.8294 23.6598 16.2077 22.5004 15.429 20.9844Z" fill="#0D0B0A"/>
<path d="M15.1298 20.9883C15.1634 20.9854 15.1956 21.0029 15.228 21.0122C15.2263 21.0273 15.2266 21.0429 15.223 21.058C15.1413 21.3965 13.8316 22.7771 13.5292 23.0163C12.4841 23.8415 10.9324 24.4967 9.58419 24.3355C9.54814 24.3277 9.49806 24.3179 9.46523 24.3028C9.39264 24.2692 9.34666 24.2424 9.32751 24.164C9.27641 23.9531 9.3963 23.7085 9.49217 23.5253C9.80102 22.9349 10.2847 22.2422 10.8906 21.9231C11.6374 21.5305 12.7402 21.532 13.5702 21.3843C14.1019 21.2898 14.6143 21.1456 15.1298 20.9883Z" fill="#0D0B0A"/>
</g>
<defs>
<clipPath id="clip0_11213_359">
<rect width="83.147" height="23.5097" fill="white" transform="translate(0.853027 0.859894)"/>
</clipPath>
</defs>
</svg>
